PathFileType	4	(X/Y/Z)	C:/Users/opensim2020/Desktop/walking_exp_matlab/subject03_walking09_straight_02.trc	
DataRate	CameraRate	NumFrames	NumMarkers	Units	OrigDataRate	OrigDataStartFrame	OrigNumFrames	
100.00	100.00	6	47	mm	100.00	2063	364	
Frame#	Time	LFHD			RFHD			LBHD			RBHD			C7			T10			CLAV			STRN			RBAK			LSHO			LUPA			LELB			LFRM			LWRA			LWRB			LFIN			RSHO			RUPA			RELB			RFRM			RWRA			RWRB			RFIN			LASI			RASI			LPSI			RPSI			LTHI			LKNE			LTIB			LANK			LHEE			LTOE			RTHI			RKNE			RTIB			RANK			RHEE			RTOE			*39			*40			*41			*42			*43			*44			*45			*46			
		X1	Y1	Z1	X2	Y2	Z2	X3	Y3	Z3	X4	Y4	Z4	X5	Y5	Z5	X6	Y6	Z6	X7	Y7	Z7	X8	Y8	Z8	X9	Y9	Z9	X10	Y10	Z10	X11	Y11	Z11	X12	Y12	Z12	X13	Y13	Z13	X14	Y14	Z14	X15	Y15	Z15	X16	Y16	Z16	X17	Y17	Z17	X18	Y18	Z18	X19	Y19	Z19	X20	Y20	Z20	X21	Y21	Z21	X22	Y22	Z22	X23	Y23	Z23	X24	Y24	Z24	X25	Y25	Z25	X26	Y26	Z26	X27	Y27	Z27	X28	Y28	Z28	X29	Y29	Z29	X30	Y30	Z30	X31	Y31	Z31	X32	Y32	Z32	X33	Y33	Z33	X34	Y34	Z34	X35	Y35	Z35	X36	Y36	Z36	X37	Y37	Z37	X38	Y38	Z38	X39	Y39	Z39	X40	Y40	Z40	X41	Y41	Z41	X42	Y42	Z42	X43	Y43	Z43	X44	Y44	Z44	X45	Y45	Z45	X46	Y46	Z46	X47	Y47	Z47	

228	2.270	1517.78003	-107.48140	1624.77649	1386.41614	-85.71512	1629.86609	1532.08386	16.91253	1573.23535	1401.94629	33.72664	1578.50903	1474.84631	51.89919	1421.27209	1476.40796	90.92334	1108.70544	1459.96301	-67.33568	1341.57837	1462.40210	-106.41952	1175.88806	1383.34460	117.70947	1247.89294	1618.37610	-43.25281	1379.60193	1695.44324	-69.80300	1189.35168	1709.06323	-103.51086	1071.71338	1702.43237	-159.47186	954.18658	1667.80603	-199.71111	843.74402	1722.26428	-188.23845	845.62872	1710.19556	-224.00626	770.19635	1306.08362	-9.08062	1365.25183	1233.38562	-14.18002	1142.62183	1218.95422	-35.97451	1032.54846	1216.51892	-66.01452	898.98743	1250.66528	-108.65193	808.30615	1209.20557	-74.72460	798.97650	1217.74207	-106.28243	731.31091	1583.96143	-82.99382	943.87988	1345.01135	-69.37292	943.95758	1540.89209	81.73407	968.73090	1392.29724	88.67612	970.12921	1612.53528	-14.94543	641.70166	1567.16003	-5.02261	465.48706	1563.61218	56.63674	279.35590	1516.35486	86.69330	72.43630	1479.01318	127.64028	38.06873	1495.25049	-65.86053	35.42244	1297.16553	-82.03605	653.75250	1325.43018	-150.69794	487.12659	1320.23108	-76.79688	309.15714	1361.53992	-7.53664	103.94966	1415.83093	39.84859	76.41557	1368.32239	-134.03859	46.38507																								 
229	2.280	1517.26575	-114.42319	1624.29834	1385.96655	-92.39171	1629.21362	1531.80237	9.98548	1572.94775	1401.71606	26.89750	1578.08508	1474.82788	45.10964	1420.97998	1476.40295	84.46297	1108.39136	1459.82581	-74.01771	1341.09106	1462.70740	-112.99448	1175.37622	1383.77698	111.17177	1247.42603	1618.18628	-50.30674	1379.43030	1695.65430	-77.79613	1189.69580	1709.47583	-112.59984	1072.35437	1702.57629	-169.97610	955.74414	1667.45996	-212.04147	846.15973	1721.90393	-200.31709	847.51019	1709.56555	-237.56171	772.87573	1305.96838	-15.44874	1364.47534	1233.31482	-19.73984	1141.83203	1218.96362	-41.51539	1031.75476	1216.58740	-71.53422	898.17761	1250.83118	-114.22923	807.60046	1209.16589	-80.31444	798.24725	1217.80566	-111.77701	730.61267	1584.41211	-88.97890	943.22888	1345.39124	-76.12429	943.50684	1540.56628	75.57062	968.30438	1391.99695	82.02407	969.67999	1612.26331	-19.57020	641.25732	1566.97168	-7.99993	465.12311	1563.46704	55.04319	279.38071	1516.28906	86.57246	72.62611	1478.78796	127.59550	38.30984	1495.31604	-66.01649	35.47205	1296.98462	-89.79282	653.77490	1326.09741	-159.53233	487.59042	1320.95374	-92.70550	306.94305	1362.48462	-32.62175	98.82658	1416.11938	14.02844	69.65905	1369.33423	-161.42171	46.40531																								 
230	2.290	1516.73096	-121.36307	1623.80615	1385.47375	-99.13789	1628.56580	1531.46741	3.06768	1572.54443	1401.39307	20.15408	1577.55249	1474.68225	38.20638	1420.45581	1476.20313	78.02975	1107.96399	1459.75244	-80.86147	1340.52795	1463.00085	-119.58376	1174.71313	1383.84631	104.54510	1246.77441	1617.95386	-57.42505	1379.21558	1695.83789	-85.72643	1189.99854	1709.87598	-121.29469	1072.99084	1702.51538	-180.30647	957.18811	1666.95068	-224.08511	848.55981	1721.41040	-212.33516	849.38953	1708.67578	-250.78513	775.51825	1305.89648	-21.93799	1363.71008	1233.30078	-25.29973	1141.00366	1219.06567	-47.10773	1030.82458	1216.68823	-76.99448	897.27789	1250.90125	-119.60255	806.68506	1209.38965	-85.64735	797.34753	1217.87488	-117.19711	729.77887	1584.80237	-94.94287	942.57336	1345.59534	-82.99215	942.90668	1540.28735	69.45206	967.81116	1391.62891	75.37437	969.23169	1612.07190	-24.08450	640.80548	1566.86584	-11.03098	464.73099	1563.28833	53.49071	279.38904	1516.18555	86.48468	72.79632	1478.63367	127.61251	38.66609	1495.29688	-65.90999	35.33625	1296.85339	-96.94299	653.51343	1326.73621	-168.00288	487.81244	1321.49622	-108.51190	304.94592	1363.37793	-57.85597	94.33157	1416.98987	-12.31581	63.55847	1370.57263	-188.53116	46.63843																								 
231	2.300	1516.13721	-128.32793	1623.22839	1384.89392	-105.94820	1627.86646	1531.07031	-3.93152	1571.99573	1401.05579	13.27472	1576.80286	1474.52112	31.34214	1419.93079	1475.96790	71.52370	1107.52271	1459.61462	-87.65392	1339.92041	1463.20520	-126.19784	1174.00903	1384.00391	97.95424	1246.21741	1617.71191	-64.45918	1378.91553	1695.97119	-93.66371	1190.17224	1710.17126	-129.97847	1073.54541	1702.45593	-190.52654	958.63489	1666.27502	-235.91835	850.77576	1720.68811	-224.00031	851.13672	1707.56165	-263.86688	778.03815	1305.76770	-28.52725	1362.90137	1233.23987	-30.87932	1140.06274	1219.02246	-52.59877	1029.90332	1216.81042	-82.42671	896.31354	1250.94910	-125.05961	805.75958	1209.57861	-90.95631	796.40973	1218.00000	-122.64763	728.92078	1585.13000	-100.96535	941.91901	1345.89185	-89.84815	942.20026	1539.94861	63.20879	967.19696	1391.26160	68.71539	968.60620	1611.89685	-28.52795	640.33295	1566.78259	-14.14836	464.42688	1563.16736	51.83844	279.49911	1516.13635	86.28437	72.97560	1478.44385	127.57451	38.96660	1495.31726	-65.91524	35.31452	1296.62549	-103.30970	652.91656	1327.36462	-176.23521	487.84485	1322.00110	-123.98779	303.18170	1363.92090	-82.81731	90.39621	1417.93701	-38.75710	57.74476	1371.87646	-215.27434	46.91370																								 
232	2.310	1515.50623	-135.34566	1622.63342	1384.24390	-112.81561	1627.11816	1530.64539	-10.90970	1571.41443	1400.60889	6.42970	1576.02393	1474.32104	24.41971	1419.32703	1475.68457	64.98035	1106.98364	1459.39783	-94.32359	1339.11243	1463.41504	-132.89680	1173.32959	1384.12781	91.33241	1245.74194	1617.43652	-71.51862	1378.53577	1696.05444	-101.49892	1190.24048	1710.35535	-138.63190	1073.87573	1702.18555	-200.44141	959.84436	1665.40271	-247.37103	852.95441	1719.83203	-235.55084	852.73236	1706.25940	-276.57986	780.44818	1305.62451	-35.23783	1362.00464	1233.24573	-36.61745	1139.16528	1219.05530	-58.13115	1028.89380	1216.95276	-87.82411	895.26385	1251.02991	-130.59442	804.72925	1209.89026	-96.20721	795.33539	1218.15039	-127.88534	727.90997	1585.35876	-107.07590	941.27032	1345.88647	-96.81180	941.41583	1539.62244	56.92302	966.57251	1390.91968	62.01716	967.91919	1611.68384	-33.03342	639.83026	1566.79346	-17.39570	463.93027	1563.06079	49.98303	279.54956	1515.75146	85.94398	73.05869	1478.29248	127.52579	39.34730	1495.28845	-65.94512	35.17097	1296.56189	-109.50527	652.12842	1328.04614	-184.06448	487.69019	1322.65637	-139.37613	301.61215	1364.48987	-107.54071	87.14233	1418.64990	-64.73354	53.54842	1373.25708	-241.62868	47.28315																								 
233	2.320	1514.87573	-142.34227	1621.95422	1383.54480	-119.71628	1626.20325	1530.21265	-17.93270	1570.71497	1400.22327	-0.46780	1575.16333	1474.14648	17.49751	1418.68103	1475.37634	58.40326	1106.38794	1459.34302	-101.38943	1338.41455	1463.49951	-139.55669	1172.46887	1384.04529	84.63577	1245.08435	1617.16125	-78.60814	1378.07434	1696.03662	-109.24440	1190.20642	1710.42200	-146.77034	1074.08191	1701.69519	-210.12250	960.86328	1664.39172	-258.39886	854.92432	1718.85242	-246.73773	854.25824	1704.85583	-288.92859	782.73285	1305.46692	-41.97853	1361.06763	1233.29565	-42.49762	1138.17053	1219.07886	-63.73687	1027.83765	1217.08459	-93.14336	894.11658	1251.26575	-135.60181	803.34802	1210.19849	-101.37092	794.21002	1218.40747	-133.23257	726.75702	1585.51965	-113.24657	940.50757	1346.06079	-103.51571	940.57788	1539.36975	50.57810	965.97083	1390.62988	55.29632	967.22943	1611.45129	-37.56434	639.30743	1566.73743	-20.54210	463.68039	1562.91040	47.91983	279.61868	1515.62085	85.68056	73.33225	1478.11963	127.47332	39.73278	1495.31580	-65.98607	35.14326	1296.52979	-115.48843	651.16040	1328.84424	-191.65923	487.40170	1323.16785	-154.06667	300.27133	1364.96973	-132.16054	84.46735	1419.15833	-90.32347	49.94279	1374.46985	-267.49521	47.62570																								 
